# xmcd
#
# Track frame offsets: 
#        150
#        21638
#        35924
#        61311
#        85459
#        106297
#        124289
#        144577
#        162628
#        183665
#        219015
#        244465
#        266998
#        281231
#        294712
#
# Disc length: 4335 seconds
#
# Revision: 2
# Processed by: cddbd v1.5.2PL0 Copyright (c) Steve Scherf et al.
# Submitted via: ExactAudioCopy v1.0b3
#
DISCID=0010ed0f
DTITLE=Various Artist - Simply Arabia - Simply Rai ... and beyond [CD
DTITLE=3)
DYEAR=2009
DGENRE=Alternative Country
TTITLE0=Cheb Mami - Ana Mazel
TTITLE1=Cheb Khaled - La Camel
TTITLE2=Chaba Zahouania - Samehni
TTITLE3=Cheb Bilal - Bech Fayetni
TTITLE4=Cheb Amar - Mama Ranjouha Gololha L'Dji
TTITLE5=Bellemou Messaoud and Gana Maghaoui - Lala H'Bibi
TTITLE6=Hanino - El Houz
TTITLE7=Chemssy - Ghadbana
TTITLE8=Nass El Ghiwane - Ya Afi
TTITLE9=Youmni Rabii - Super
TTITLE10=Cheb Hasni - Baida mon amour
TTITLE11=Anouar - Mon cahier de souvenir
TTITLE12=Collectif Bled - Ya Ouili
TTITLE13=Cheb Karim - Mani Man
TTITLE14=Cheb Kaled and Chaba Zahouania - Hadjedek
EXTD=
EXTT0=
EXTT1=
EXTT2=
EXTT3=
EXTT4=
EXTT5=
EXTT6=
EXTT7=
EXTT8=
EXTT9=
EXTT10=
EXTT11=
EXTT12=
EXTT13=
EXTT14=
PLAYORDER=
